<mxfile host="app.diagrams.net" modified="2023-05-24T00:21:18.952Z" agent="Mozilla/5.0 (Windows NT 10.0; Win64; x64) AppleWebKit/537.36 (KHTML, like Gecko) Chrome/113.0.0.0 Safari/537.36" etag="L6jWwLnCf-_QQHlNOJ_B" version="21.3.3" type="github">
  <diagram id="C5RBs43oDa-KdzZeNtuy" name="Page-1">
    <mxGraphModel dx="1235" dy="1805" grid="1" gridSize="10" guides="1" tooltips="1" connect="1" arrows="1" fold="1" page="1" pageScale="1" pageWidth="827" pageHeight="1169" math="0" shadow="0">
      <root>
        <mxCell id="WIyWlLk6GJQsqaUBKTNV-0" />
        <mxCell id="WIyWlLk6GJQsqaUBKTNV-1" parent="WIyWlLk6GJQsqaUBKTNV-0" />
        <mxCell id="zsqRDqy1aka8Lex8KhXO-0" value="EXEMPLAR LIVRO" style="rounded=0;whiteSpace=wrap;html=1;" vertex="1" parent="WIyWlLk6GJQsqaUBKTNV-1">
          <mxGeometry x="354" y="90" width="120" height="60" as="geometry" />
        </mxCell>
        <mxCell id="zsqRDqy1aka8Lex8KhXO-1" value="LIVRO" style="rounded=0;whiteSpace=wrap;html=1;" vertex="1" parent="WIyWlLk6GJQsqaUBKTNV-1">
          <mxGeometry x="40" y="100" width="120" height="60" as="geometry" />
        </mxCell>
        <mxCell id="zsqRDqy1aka8Lex8KhXO-2" value="EMPRESTIMO" style="rounded=0;whiteSpace=wrap;html=1;" vertex="1" parent="WIyWlLk6GJQsqaUBKTNV-1">
          <mxGeometry x="520" y="-17.5" width="120" height="60" as="geometry" />
        </mxCell>
        <mxCell id="zsqRDqy1aka8Lex8KhXO-3" value="ALUNO" style="rounded=0;whiteSpace=wrap;html=1;" vertex="1" parent="WIyWlLk6GJQsqaUBKTNV-1">
          <mxGeometry x="680" y="100" width="120" height="60" as="geometry" />
        </mxCell>
        <mxCell id="zsqRDqy1aka8Lex8KhXO-8" value="AUTOR" style="rounded=0;whiteSpace=wrap;html=1;" vertex="1" parent="WIyWlLk6GJQsqaUBKTNV-1">
          <mxGeometry x="40" y="-140" width="120" height="60" as="geometry" />
        </mxCell>
        <mxCell id="zsqRDqy1aka8Lex8KhXO-15" value="" style="edgeStyle=orthogonalEdgeStyle;rounded=0;orthogonalLoop=1;jettySize=auto;html=1;" edge="1" parent="WIyWlLk6GJQsqaUBKTNV-1" source="zsqRDqy1aka8Lex8KhXO-10" target="zsqRDqy1aka8Lex8KhXO-1">
          <mxGeometry relative="1" as="geometry" />
        </mxCell>
        <mxCell id="zsqRDqy1aka8Lex8KhXO-10" value="FAZ" style="html=1;whiteSpace=wrap;aspect=fixed;shape=isoRectangle;" vertex="1" parent="WIyWlLk6GJQsqaUBKTNV-1">
          <mxGeometry x="220" y="106" width="90" height="54" as="geometry" />
        </mxCell>
        <mxCell id="zsqRDqy1aka8Lex8KhXO-12" value="1:N" style="shape=link;html=1;rounded=0;" edge="1" parent="WIyWlLk6GJQsqaUBKTNV-1" source="zsqRDqy1aka8Lex8KhXO-1" target="zsqRDqy1aka8Lex8KhXO-10">
          <mxGeometry width="100" relative="1" as="geometry">
            <mxPoint x="330" y="220" as="sourcePoint" />
            <mxPoint x="430" y="220" as="targetPoint" />
          </mxGeometry>
        </mxCell>
        <mxCell id="zsqRDqy1aka8Lex8KhXO-16" value="EDITORA" style="rounded=0;whiteSpace=wrap;html=1;" vertex="1" parent="WIyWlLk6GJQsqaUBKTNV-1">
          <mxGeometry x="40" y="300" width="120" height="60" as="geometry" />
        </mxCell>
        <mxCell id="zsqRDqy1aka8Lex8KhXO-20" value="" style="edgeStyle=orthogonalEdgeStyle;rounded=0;orthogonalLoop=1;jettySize=auto;html=1;" edge="1" parent="WIyWlLk6GJQsqaUBKTNV-1" source="zsqRDqy1aka8Lex8KhXO-17" target="zsqRDqy1aka8Lex8KhXO-1">
          <mxGeometry relative="1" as="geometry" />
        </mxCell>
        <mxCell id="zsqRDqy1aka8Lex8KhXO-17" value="PUBLICA" style="html=1;whiteSpace=wrap;aspect=fixed;shape=isoRectangle;" vertex="1" parent="WIyWlLk6GJQsqaUBKTNV-1">
          <mxGeometry x="50" y="200" width="100" height="60" as="geometry" />
        </mxCell>
        <mxCell id="zsqRDqy1aka8Lex8KhXO-18" value="1:N" style="shape=link;html=1;rounded=0;" edge="1" parent="WIyWlLk6GJQsqaUBKTNV-1" source="zsqRDqy1aka8Lex8KhXO-1" target="zsqRDqy1aka8Lex8KhXO-17">
          <mxGeometry width="100" relative="1" as="geometry">
            <mxPoint x="330" y="150" as="sourcePoint" />
            <mxPoint x="430" y="150" as="targetPoint" />
          </mxGeometry>
        </mxCell>
        <mxCell id="zsqRDqy1aka8Lex8KhXO-19" value="1:1" style="shape=link;html=1;rounded=0;" edge="1" parent="WIyWlLk6GJQsqaUBKTNV-1" source="zsqRDqy1aka8Lex8KhXO-17" target="zsqRDqy1aka8Lex8KhXO-16">
          <mxGeometry x="0.0196" width="100" relative="1" as="geometry">
            <mxPoint x="330" y="150" as="sourcePoint" />
            <mxPoint x="430" y="150" as="targetPoint" />
            <mxPoint as="offset" />
          </mxGeometry>
        </mxCell>
        <mxCell id="zsqRDqy1aka8Lex8KhXO-22" value="FAZ" style="html=1;whiteSpace=wrap;aspect=fixed;shape=isoRectangle;" vertex="1" parent="WIyWlLk6GJQsqaUBKTNV-1">
          <mxGeometry x="694.1700000000001" y="242.5" width="91.66" height="55" as="geometry" />
        </mxCell>
        <mxCell id="zsqRDqy1aka8Lex8KhXO-23" value="ESCREVE" style="html=1;whiteSpace=wrap;aspect=fixed;shape=isoRectangle;" vertex="1" parent="WIyWlLk6GJQsqaUBKTNV-1">
          <mxGeometry x="50" y="-20" width="100" height="60" as="geometry" />
        </mxCell>
        <mxCell id="zsqRDqy1aka8Lex8KhXO-25" value="1:N" style="shape=link;html=1;rounded=0;" edge="1" parent="WIyWlLk6GJQsqaUBKTNV-1" source="zsqRDqy1aka8Lex8KhXO-1" target="zsqRDqy1aka8Lex8KhXO-23">
          <mxGeometry width="100" relative="1" as="geometry">
            <mxPoint x="330" y="70" as="sourcePoint" />
            <mxPoint x="430" y="70" as="targetPoint" />
          </mxGeometry>
        </mxCell>
        <mxCell id="zsqRDqy1aka8Lex8KhXO-28" value="1:N" style="shape=link;html=1;rounded=0;" edge="1" parent="WIyWlLk6GJQsqaUBKTNV-1" source="zsqRDqy1aka8Lex8KhXO-22" target="zsqRDqy1aka8Lex8KhXO-3">
          <mxGeometry width="100" relative="1" as="geometry">
            <mxPoint x="330" y="70" as="sourcePoint" />
            <mxPoint x="430" y="70" as="targetPoint" />
          </mxGeometry>
        </mxCell>
        <mxCell id="zsqRDqy1aka8Lex8KhXO-30" value="RESERVA" style="rounded=0;whiteSpace=wrap;html=1;" vertex="1" parent="WIyWlLk6GJQsqaUBKTNV-1">
          <mxGeometry x="520" y="230" width="120" height="60" as="geometry" />
        </mxCell>
        <mxCell id="zsqRDqy1aka8Lex8KhXO-35" value="1:N" style="shape=link;html=1;rounded=0;" edge="1" parent="WIyWlLk6GJQsqaUBKTNV-1" source="zsqRDqy1aka8Lex8KhXO-23" target="zsqRDqy1aka8Lex8KhXO-8">
          <mxGeometry width="100" relative="1" as="geometry">
            <mxPoint x="60" y="-40" as="sourcePoint" />
            <mxPoint x="160" y="-40" as="targetPoint" />
          </mxGeometry>
        </mxCell>
        <mxCell id="zsqRDqy1aka8Lex8KhXO-40" value="FAZ" style="html=1;whiteSpace=wrap;aspect=fixed;shape=isoRectangle;" vertex="1" parent="WIyWlLk6GJQsqaUBKTNV-1">
          <mxGeometry x="694.1700000000001" y="-15" width="91.66" height="55" as="geometry" />
        </mxCell>
        <mxCell id="zsqRDqy1aka8Lex8KhXO-41" value="FAZ" style="html=1;whiteSpace=wrap;aspect=fixed;shape=isoRectangle;" vertex="1" parent="WIyWlLk6GJQsqaUBKTNV-1">
          <mxGeometry x="372.50000000000006" y="230" width="91.66" height="55" as="geometry" />
        </mxCell>
        <mxCell id="zsqRDqy1aka8Lex8KhXO-42" value="FAZ" style="html=1;whiteSpace=wrap;aspect=fixed;shape=isoRectangle;" vertex="1" parent="WIyWlLk6GJQsqaUBKTNV-1">
          <mxGeometry x="372.50000000000006" y="-17.5" width="91.66" height="55" as="geometry" />
        </mxCell>
      </root>
    </mxGraphModel>
  </diagram>
</mxfile>
